<svg xmlns="http://www.w3.org/2000/svg" version="1.1" xmlns:xlink="http://www.w3.org/1999/xlink" xmlns:svgjs="http://svgjs.dev/svgjs" width="128" height="128" viewBox="0 0 128 128"><g transform="matrix(0.4835680751173709,0,0,0.4835680751173709,33.1585799840917,12.333870967741944)"><svg viewBox="0 0 93 155" data-background-color="#89939e" preserveAspectRatio="xMidYMid meet" height="213" width="128" xmlns="http://www.w3.org/2000/svg" xmlns:xlink="http://www.w3.org/1999/xlink"><g id="tight-bounds" transform="matrix(1,0,0,1,-0.16067285382831642,0.2499999999999858)"><svg viewBox="0 0 93.32134570765662 154.5" height="154.5" width="93.32134570765662"><g><svg viewBox="0 0 93.32134570765662 154.5" height="154.5" width="93.32134570765662"><g><svg viewBox="0 0 93.32134570765662 154.5" height="154.5" width="93.32134570765662"><g id="textblocktransform"><svg viewBox="0 0 93.32134570765662 154.5" height="154.5" width="93.32134570765662" id="textblock"><g><svg viewBox="0 0 93.32134570765662 154.5" height="154.5" width="93.32134570765662"><g transform="matrix(1,0,0,1,0,0)"><svg width="93.32134570765662" viewBox="1.61 -30.98 19.07 31.57" height="154.5" data-palette-color="#ffffff"><path d="M9.81 0.59Q12.62 0.59 15.12-0.57 17.63-1.73 19.15-3.86 20.68-5.98 20.68-8.72L20.68-8.72Q20.68-10.67 19.68-12.11 18.68-13.55 17.24-14.54 15.8-15.53 13.35-16.82L13.35-16.82Q11.01-18.09 9.66-18.99 8.3-19.9 7.36-21.22 6.42-22.53 6.42-24.29L6.42-24.29Q6.42-26.59 7.67-27.76 8.91-28.93 10.86-28.93L10.86-28.93Q11.77-28.93 12.65-28.55 13.53-28.17 14.15-27.62 14.77-27.08 15.01-26.61L15.01-26.61 15.63-21.95 18.04-21.66Q18.12-22.71 18.31-25.05 18.51-27.39 18.58-28.54L18.58-28.54Q15.65-30.98 11.69-30.98L11.69-30.98Q9.23-30.98 7.06-29.96 4.88-28.93 3.54-26.98 2.2-25.02 2.2-22.36L2.2-22.36Q2.2-20.07 3.31-18.38 4.42-16.7 5.99-15.61 7.57-14.53 10.13-13.16L10.13-13.16Q12.21-12.04 13.39-11.25 14.58-10.47 15.38-9.41 16.19-8.35 16.19-7.01L16.19-7.01Q16.19-5.3 15.32-4.15 14.45-3 13.12-2.44 11.79-1.88 10.4-1.88L10.4-1.88Q8.79-1.88 7.43-2.59 6.08-3.3 5.37-4.32L5.37-4.32 4.42-8.91 1.93-9.25 1.61-2.25Q2.86-1.03 5.07-0.22 7.28 0.59 9.81 0.59L9.81 0.59Z" opacity="1" transform="matrix(1,0,0,1,0,0)" fill="#ffffff" class="undefined-text-0" data-fill-palette-color="primary" id="text-0"></path></svg></g></svg></g></svg></g></svg></g></svg></g><defs></defs></svg><rect width="93.32134570765662" height="154.5" fill="none" stroke="none" visibility="hidden"></rect></g></svg></g></svg>