<svg xmlns="http://www.w3.org/2000/svg" version="1.1" xmlns:xlink="http://www.w3.org/1999/xlink" xmlns:svgjs="http://svgjs.dev/svgjs" width="2000" height="691" viewBox="0 0 2000 691"><g transform="matrix(1,0,0,1,-1.2121212121212466,-0.12034696689249813)"><svg viewBox="0 0 396 137" data-background-color="#89939e" preserveAspectRatio="xMidYMid meet" height="691" width="2000" xmlns="http://www.w3.org/2000/svg" xmlns:xlink="http://www.w3.org/1999/xlink"><g id="tight-bounds" transform="matrix(1,0,0,1,0.2400000000000091,0.02386039719866062)"><svg viewBox="0 0 395.52 136.95227920560268" height="136.95227920560268" width="395.52"><g><svg viewBox="0 0 395.52 136.95227920560268" height="136.95227920560268" width="395.52"><g><svg viewBox="0 0 395.52 136.95227920560268" height="136.95227920560268" width="395.52"><g id="textblocktransform"><svg viewBox="0 0 395.52 136.95227920560268" height="136.95227920560268" width="395.52" id="textblock"><g><rect width="395.52" height="102.67693004054553" fill="none" stroke-width="9.018103199999999" stroke="#ffffff" data-fill-palette-color="none" data-stroke-palette-color="tertiary"></rect><rect width="395.52" height="34.275349165057136" y="102.67693004054553" fill="#ffffff" data-fill-palette-color="tertiary"></rect></g><g><svg viewBox="0 0 395.52 102.67693004054553" height="102.67693004054553" width="395.52"><g transform="matrix(1,0,0,1,23.607599999999998,23.6076)"><svg width="348.3048" viewBox="1.6100000143051147 -30.979999542236328 198.69000244140625 31.639999389648438" height="55.461730040545525" data-palette-color="#ffffff"><path d="M9.81 0.59Q12.62 0.59 15.12-0.57 17.63-1.73 19.15-3.86 20.68-5.98 20.68-8.72L20.68-8.72Q20.68-10.67 19.68-12.11 18.68-13.55 17.24-14.54 15.8-15.53 13.35-16.82L13.35-16.82Q11.01-18.09 9.66-18.99 8.3-19.9 7.36-21.22 6.42-22.53 6.42-24.29L6.42-24.29Q6.42-26.59 7.67-27.76 8.91-28.93 10.86-28.93L10.86-28.93Q11.77-28.93 12.65-28.55 13.53-28.17 14.15-27.62 14.77-27.08 15.01-26.61L15.01-26.61 15.63-21.95 18.04-21.66Q18.12-22.71 18.31-25.05 18.51-27.39 18.58-28.54L18.58-28.54Q15.65-30.98 11.69-30.98L11.69-30.98Q9.23-30.98 7.06-29.96 4.88-28.93 3.54-26.98 2.2-25.02 2.2-22.36L2.2-22.36Q2.2-20.07 3.31-18.38 4.42-16.7 5.99-15.61 7.57-14.53 10.13-13.16L10.13-13.16Q12.21-12.04 13.39-11.25 14.58-10.47 15.38-9.41 16.19-8.35 16.19-7.01L16.19-7.01Q16.19-5.3 15.32-4.15 14.45-3 13.12-2.44 11.79-1.88 10.4-1.88L10.4-1.88Q8.79-1.88 7.43-2.59 6.08-3.3 5.37-4.32L5.37-4.32 4.42-8.91 1.93-9.25 1.61-2.25Q2.86-1.03 5.07-0.22 7.28 0.59 9.81 0.59L9.81 0.59ZM22.29-28.52L26.73-27.49 26.73-2.95 22.65-1.81 22.46 0 35.67 0 35.98-1.95 31.49-2.78 31.49-14.38 46.8-14.38 46.8-2.95 42.75-1.81 42.5 0 55.76 0 56-1.95 51.56-2.78 51.56-27.59 55.64-28.52 55.93-30.37 42.6-30.37 42.33-28.52 46.8-27.49 46.8-16.89 31.49-16.89 31.49-27.59 35.59-28.52 35.84-30.37 22.56-30.37 22.29-28.52ZM60.66-27.49L60.66-11.45Q60.66-4.49 64.05-1.92 67.43 0.66 72.65 0.66L72.65 0.66Q78.93 0.66 81.88-2.61 84.83-5.88 84.88-12.57L84.88-12.57 85-27.59 89.06-28.52 89.33-30.37 77.66-30.37 77.41-28.52 81.88-27.49 81.81-11.77Q81.78-7.1 79.73-4.83 77.68-2.56 73.87-2.56L73.87-2.56Q69.94-2.56 67.66-4.99 65.38-7.42 65.38-12.45L65.38-12.45 65.38-27.59 69.5-28.52 69.72-30.37 56.49-30.37 56.17-28.52 60.66-27.49ZM89.62-30.37L89.81-22.51 92.03-22.19 93.33-28.13 100.53-28.13 100.53-2.95 96.4-1.81 96.23 0 109.39 0 109.73-1.95 105.22-2.78 105.22-28.13 112.66-28.13 113.59-22.49 115.91-22.12 116.74-30.37 89.62-30.37ZM116.93-30.37L117.13-22.51 119.35-22.19 120.64-28.13 127.85-28.13 127.85-2.95 123.72-1.81 123.55 0 136.71 0 137.05-1.95 132.53-2.78 132.53-28.13 139.98-28.13 140.91-22.49 143.23-22.12 144.06-30.37 116.93-30.37ZM144.91-28.52L149.35-27.49 149.35-2.95 145.28-1.81 145.08 0 169.86 0 170.59-7.64 168.57-7.96 166.17-2.34 154.09-2.34 154.09-14.23 160.78-14.23 161.61-9.96 163.68-10.28 164.51-19.78 162.19-19.43 161.17-16.5 154.09-16.5 154.09-28.13 165.59-28.13 166.59-22.88 168.71-22.56 169.47-30.37 145.18-30.37 144.91-28.52ZM184.53 0L184.78-2.03 180.19-3.08 180.19-13.11 184.43-13.11 188.32-6.18Q190.07-3.03 192.18-1.26 194.3 0.51 197.01 0.51L197.01 0.51Q198.54 0.51 199.94 0.02L199.94 0.02 200.3-1.64 199.5-1.88Q198.03-2.32 196.98-3.09 195.93-3.86 195-4.98 194.08-6.1 192.34-8.52L192.34-8.52 187.95-14.6 187.95-14.62Q190.17-15.41 191.75-16.77 193.32-18.14 194.14-19.78 194.96-21.41 194.96-23.02L194.96-23.02Q194.96-27.08 191.75-28.83 188.53-30.59 182.7-30.59L182.7-30.59Q180.26-30.59 177.6-30.3 174.94-30 171.57-29.47L171.57-29.47 171.32-27.59 175.5-26.86 175.5-2.95 171.42-1.81 171.15 0 184.53 0ZM180.19-28.42Q180.4-28.44 181.22-28.49 182.04-28.54 183.11-28.54L183.11-28.54Q185.24-28.54 186.76-27.66 188.29-26.78 189.1-25.22 189.9-23.66 189.9-21.66L189.9-21.66Q189.9-19.24 188.49-17.63 187.07-16.02 185.02-15.33L185.02-15.33 180.19-15.33 180.19-28.42Z" opacity="1" transform="matrix(1,0,0,1,0,0)" fill="#ffffff" class="undefined-text-0" data-fill-palette-color="primary" id="text-0"></path></svg></g></svg></g></svg></g></svg></g></svg></g><defs></defs></svg><rect width="395.52" height="136.95227920560268" fill="none" stroke="none" visibility="hidden"></rect></g></svg></g></svg>